<?xml version="1.0" encoding="UTF-8" standalone="no"?>
<!-- Created with Inkscape (http://www.inkscape.org/) -->

<svg
   version="1.1"
   id="svg2"
   width="656"
   height="656"
   viewBox="0 0 656 656"
   sodipodi:docname="ChouChouRoot_main_icon.svg"
   inkscape:version="1.2.2 (732a01da63, 2022-12-09)"
   xmlns:inkscape="http://www.inkscape.org/namespaces/inkscape"
   xmlns:sodipodi="http://sodipodi.sourceforge.net/DTD/sodipodi-0.dtd"
   xmlns="http://www.w3.org/2000/svg"
   xmlns:svg="http://www.w3.org/2000/svg">
  <defs
     id="defs6" />
  <sodipodi:namedview
     id="namedview4"
     pagecolor="#ffffff"
     bordercolor="#111111"
     borderopacity="1"
     inkscape:showpageshadow="0"
     inkscape:pageopacity="0"
     inkscape:pagecheckerboard="1"
     inkscape:deskcolor="#d1d1d1"
     showgrid="false"
     inkscape:zoom="0.89358464"
     inkscape:cx="252.35438"
     inkscape:cy="342.44098"
     inkscape:window-width="1920"
     inkscape:window-height="1009"
     inkscape:window-x="-8"
     inkscape:window-y="-8"
     inkscape:window-maximized="1"
     inkscape:current-layer="layer1">
    <inkscape:grid
       type="xygrid"
       id="grid11374" />
  </sodipodi:namedview>
  <g
     inkscape:groupmode="layer"
     id="layer1"
     inkscape:label="Image 1"
     style="display:inline;fill:#000000">
    <circle
       style="opacity:1;fill:none;stroke:#000000;stroke-width:2;stroke-dasharray:none;stroke-opacity:1;paint-order:stroke fill markers"
       id="path850"
       cx="324.87817"
       cy="326.37393"
       r="249.89606" />
    <circle
       style="fill:none;stroke:#000000;stroke-width:2;stroke-dasharray:none;stroke-opacity:1;paint-order:stroke fill markers"
       id="path850-7"
       cx="325.75635"
       cy="325.62607"
       r="201.62715" />
    <circle
       style="fill:none;stroke:#000000;stroke-width:5;stroke-dasharray:none;stroke-opacity:1;paint-order:stroke fill markers"
       id="path850-7-4"
       cx="325.43063"
       cy="324.83957"
       r="233.80643"
       inkscape:label="path850-7-4" />
    <path
       style="opacity:1;fill:#000000;fill-opacity:1;stroke:none;stroke-width:2;stroke-dasharray:none;stroke-opacity:1;paint-order:stroke fill markers"
       d="m 24.185183,379.60907 53.716232,-23.50085 50.918515,5.03589 -45.882618,22.94131 z"
       id="path6751"
       sodipodi:nodetypes="ccccc" />
    <path
       style="opacity:1;fill:#ffffff;fill-opacity:1;stroke:#000000;stroke-width:2;stroke-dasharray:none;stroke-opacity:1;paint-order:stroke fill markers"
       d="m 24.185183,484.80336 71.621643,-60.99031 94.562954,-23.22108 -74.69914,62.94871 z"
       id="path6915"
       sodipodi:nodetypes="ccccc" />
    <path
       style="opacity:1;fill:#000000;fill-opacity:1;stroke:none;stroke-width:2;stroke-dasharray:none;stroke-opacity:1;paint-order:stroke fill markers"
       d="m 167.02391,554.78796 11.60642,-47.7169 44.06822,-30.61927 -15.85924,50.71486 z"
       id="path6917"
       sodipodi:nodetypes="ccccc" />
    <path
       style="opacity:1;fill:#ffffff;fill-opacity:1;stroke:#000000;stroke-width:2;stroke-dasharray:none;stroke-opacity:1;paint-order:stroke fill markers"
       d="m 222.69855,476.45179 28.53675,-13.42906 3.35726,-33.85241 -30.77493,15.947 z"
       id="path6919"
       sodipodi:nodetypes="ccccc" />
    <path
       style="opacity:1;fill:#000000;fill-opacity:1;stroke:none;stroke-width:2;stroke-dasharray:none;stroke-opacity:1;paint-order:stroke fill markers"
       d="m 254.03302,429.17032 18.74473,-8.39317 5.03589,-22.66153 -21.26268,9.51225 z"
       id="path6921"
       sodipodi:nodetypes="ccccc" />
    <path
       style="opacity:1;fill:#000000;fill-opacity:1;stroke:none;stroke-width:2;stroke-dasharray:none;stroke-opacity:1;paint-order:stroke fill markers"
       d="m 497.34138,569.74668 -5.53921,-57.37033 -49.85283,-21.36549 1.58262,55.39204 z"
       id="path6923"
       sodipodi:nodetypes="ccccc" />
    <path
       style="opacity:1;fill:#ffffff;fill-opacity:1;stroke:#000000;stroke-width:2;stroke-dasharray:none;stroke-opacity:1;paint-order:stroke fill markers"
       d="m 442.34499,491.01086 -6.33051,-32.44391 -36.40049,-27.30036 13.84801,43.91797 z"
       id="path6925"
       sodipodi:nodetypes="ccccc" />
    <path
       style="opacity:1;fill:#000000;fill-opacity:1;stroke:none;stroke-width:2;stroke-dasharray:none;stroke-opacity:1;paint-order:stroke fill markers"
       d="m 529.90504,437.34886 20.05157,-1.83895 18.80344,22.95044 -30.30737,-1.19006 z"
       id="path6927"
       sodipodi:nodetypes="ccccc" />
    <path
       style="opacity:1;fill:#000000;fill-opacity:1;stroke:none;stroke-width:2;stroke-dasharray:none;stroke-opacity:1;paint-order:stroke fill markers"
       d="m 530.5766,437.99276 -22.15681,-25.51989 -48.27022,-12.06755 36.40049,32.44391 z"
       id="path6929"
       sodipodi:nodetypes="ccccc" />
    <path
       style="opacity:1;fill:#ffffff;fill-opacity:1;stroke:#000000;stroke-width:2;stroke-dasharray:none;stroke-opacity:1;paint-order:stroke fill markers"
       d="m 634.6345,331.16526 -60.53558,-20.77202 -75.17491,20.77202 74.18576,24.1351 z"
       id="path6954"
       sodipodi:nodetypes="ccccc" />
    <path
       style="opacity:1;fill:#000000;fill-opacity:1;stroke:none;stroke-width:2;stroke-dasharray:none;stroke-opacity:1;paint-order:stroke fill markers"
       d="m 572.12063,114.74065 -45.10495,91.00121 -80.31845,18.99155 27.89384,-80.12062 z"
       id="path6956"
       sodipodi:nodetypes="ccccc" />
  </g>
  <g
     inkscape:groupmode="layer"
     id="layer4"
     inkscape:label="Image 4">
    <circle
       style="display:none;opacity:1;fill:#ffffff;fill-opacity:1;stroke:#000000;stroke-width:5;stroke-dasharray:none;stroke-opacity:1;paint-order:stroke fill markers"
       id="path7065"
       cx="434.58383"
       cy="152.32811"
       r="84.306488" />
    <circle
       style="fill:none;fill-opacity:1;stroke:#000000;stroke-width:0.84165;stroke-dasharray:none;stroke-opacity:1;paint-order:stroke fill markers"
       id="path7065-6"
       cx="436.44443"
       cy="152.19597"
       r="70.956604" />
    <g
       inkscape:groupmode="layer"
       id="layer6"
       inkscape:label="Image 6">
      <path
         style="opacity:1;fill:#ffffff;fill-opacity:1;stroke:#000000;stroke-width:4;stroke-dasharray:none;stroke-opacity:1;paint-order:stroke fill markers"
         d="m 335.72645,124.21879 c 0,0 24.41959,4.55039 31.33447,-3.35727 9.08883,-10.39374 -6.53394,-27.761351 4.02446,-36.658371 8.72721,-7.353977 12.00674,6.20673 21.30727,-0.407305 8.89938,-6.328763 -0.0662,-14.735742 10.41121,-17.814232 9.89903,-2.908561 11.04921,6.811827 21.33056,7.674555 11.613,0.974469 12.73871,-13.552211 24.08851,-10.907698 10.73421,2.501083 6.5509,11.644221 16.98997,15.180398 8.8539,2.999209 9.36315,-6.011106 17.10245,-0.76802 7.77619,5.268073 1.87142,11.924115 7.72115,19.272742 6.54226,8.218601 15.13743,-2.418357 20.65172,6.522521 5.01921,8.13816 -3.55174,13.8149 -0.57602,22.90155 3.60639,11.01248 14.47662,1.92306 15.24829,13.48529 0.7221,10.81948 -12.2231,4.56471 -13.54153,15.32781 -0.94378,7.70465 13.57746,11.43596 10.65945,18.62884 -4.56557,11.25413 -11.99238,-1.08492 -17.21493,9.87979 -4.37832,9.19227 8.98113,9.90671 3.07409,18.54932 -5.90704,8.6426 -8.63602,-0.46019 -14.64951,5.35587 -7.81057,7.55415 1.2976,14.60741 -3.72972,18.25313 -5.44702,3.95008 -14.19963,-5.62092 -20.0537,-2.30383 -4.11512,2.33175 -1.56831,10.92701 -5.85542,12.92501 -3.50768,1.63476 -11.17923,-3.13231 -11.17923,-3.13231 z"
         id="path11652"
         sodipodi:nodetypes="cssssssssssssssszsaaacc" />
      <path
         style="opacity:1;fill:#ffffff;fill-opacity:1;stroke:#000000;stroke-width:5;stroke-dasharray:none;stroke-opacity:1;paint-order:stroke fill markers"
         d="m 117.22208,133.00761 c 6.09396,-10.54012 18.67075,2.47345 26.87458,-6.52253 8.67181,-9.50916 -7.52786,-22.14948 3.16526,-29.310591 8.54742,-5.724147 18.80646,6.186681 28.53675,2.848141 15.64571,-5.36817 0.16044,-26.653807 16.31113,-30.226035 10.71223,-2.369343 16.00798,8.989083 26.66029,6.363461 10.77171,-2.655052 2.39634,-20.12249 13.12941,-22.92966 10.40966,-2.722586 17.0629,12.664295 28.8364,11.377063 11.77349,-1.287232 10.83608,-19.717939 23.49503,-17.096625 9.94005,2.058307 9.99013,14.604395 19.92929,16.667026 15.53603,3.224125 14.92077,-16.895931 29.60441,-14.672267 9.4233,1.427047 3.31542,20.616876 11.47407,24.354227 10.12071,4.63614 21.90388,-13.248237 32.17379,-8.952705 12.40096,5.186873 11.52341,25.762314 19.58404,35.251275 10.02319,11.79929 24.0287,-2.173847 33.85242,9.79202 10.35271,12.6102 -6.2319,24.94185 4.19658,37.48946 7.98745,9.61055 18.58077,0.66028 24.34017,11.75043 6.72533,12.95012 -13.64838,13.03192 -6.99431,26.0188 7.74005,15.10641 19.02731,-5.6398 27.69743,8.9527 7.11727,11.97893 -6.75885,15.17829 0.83932,26.85811 7.23912,11.12788 19.54685,-4.45609 27.13789,6.43476 5.96679,8.56055 -7.61535,14.00804 -6.15498,24.34017 1.37035,9.69521 17.50919,10.16673 18.46496,20.42336 1.07265,11.51103 -14.02957,8.57138 -16.50656,19.86381 -3.36558,15.34348 17.61805,9.55275 14.26838,24.89971 -3.09411,14.1761 -20.27247,4.63408 -25.45926,18.18519 -4.78004,12.4884 7.51099,13.5908 0.83931,25.17949 -8.09605,14.0628 -19.50731,-4.40598 -31.05469,6.9943 -10.35367,10.22178 3.89527,18.35212 -8.95271,25.17947 -13.20204,7.0155 -14.6602,-10.60176 -29.09629,-6.71453 -10.4706,2.81944 -3.42491,20.94056 -14.26838,20.98292 -10.67697,0.0417 -14.60777,-15.80771 -25.21342,-17.04039 -17.48301,-2.03203 -10.3303,20.1873 -27.01035,14.56943 -16.63879,-5.60398 3.64352,-16.99862 -13.08482,-22.32934 -12.01745,-3.82953 -6.86035,10.07399 -19.34645,8.29032 -11.76058,-1.68003 -3.5626,-9.54628 -16.19865,-9.07582 -11.95487,0.4451 -4.06347,15.1452 -15.89319,16.92692 -9.66479,1.45565 -11.89896,-14.42245 -21.62439,-13.45135 -11.80369,1.17862 -9.46496,16.71714 -21.26267,15.48004 -12.86503,-1.34902 -6.33154,-12.41408 -18.79856,-15.86405 -13.06316,-3.61494 -14.85451,13.20341 -27.63778,8.69763 -7.90213,-2.7853 -4.26778,-14.25637 -11.23065,-18.91684 -14.32795,-9.59016 -17.98321,13.12954 -29.91473,0.68366 -8.34204,-8.70166 6.16952,-12.62321 -3.66857,-19.58887 -8.6819,-6.14704 -10.55351,8.96835 -18.62532,2.77025 -7.15853,-5.49682 4.14888,-14.13724 -2.26398,-18.12313 -8.09174,-5.35609 -12.3129,7.14075 -21.49545,-3.63868 -6.84537,-8.43657 9.5429,-14.30865 2.75795,-22.79389 -8.15449,-10.19799 -18.54639,3.69157 -23.393197,-8.43292 -4.650996,-11.63466 15.580237,-10.4938 12.589737,-22.66154 -4.23421,-17.22819 -27.053855,-3.94234 -26.578339,-18.74472 0.36427,-11.3394 18.187989,-8.25275 17.625634,-19.58405 -0.678966,-13.6809 -17.798556,-12.66012 -16.506546,-27.69743 1.175117,-13.67682 16.830211,-5.52063 21.542451,-17.34586 5.53957,-13.90139 -13.203817,-21.65051 -8.393165,-31.33448 3.828085,-7.70604 16.926405,-1.65202 23.904745,-9.74162 8.17705,-9.47917 -9.47003,-13.99653 -3.20402,-24.83424 z"
         id="path11534"
         sodipodi:nodetypes="ssssssszsssaassssssssssssssssssssssssssssssssccsssssssasss" />
      <path
         style="fill:none;fill-opacity:1;stroke:#000000;stroke-width:1;stroke-dasharray:none;stroke-opacity:1;paint-order:stroke fill markers"
         d="m 120.11298,146.06527 c 5.93134,-10.21372 18.17252,2.39685 26.15744,-6.32055 8.44039,-9.21467 -7.32698,-21.46359 3.08079,-28.40294 8.31932,-5.54688 18.30461,5.9951 27.77525,2.75994 15.2282,-5.20193 0.15616,-25.82842 15.87588,-29.29003 10.42634,-2.29597 15.5808,8.71073 25.94886,6.166415 10.48426,-2.572843 2.33239,-19.499364 12.77904,-22.219604 10.13187,-2.638281 16.60759,12.272117 28.0669,11.024749 11.45934,-1.24737 10.54693,-19.10734 22.86808,-16.567202 9.67478,1.994567 9.72352,14.152148 19.39746,16.150905 15.12146,3.124289 14.52261,-16.372719 28.81443,-14.217917 9.17184,1.382858 3.22694,19.978443 11.1679,23.600058 9.85063,4.492576 21.31937,-12.837985 31.31521,-8.675465 12.07005,5.026251 11.21591,24.964541 19.06146,34.159661 9.75572,11.43391 23.38747,-2.10654 32.94905,9.48879 10.07646,12.2197 -6.06559,24.16948 4.08459,36.32853 7.77431,9.31296 18.08496,0.63983 23.69067,11.38657 6.54584,12.5491 -13.28418,12.62834 -6.80768,25.21306 7.53351,14.63863 18.51957,-5.46514 26.95834,8.67548 6.92735,11.60798 -6.57849,14.70827 0.81692,26.02641 7.04593,10.78326 19.02524,-4.3181 26.4137,6.23549 5.80757,8.29545 -7.41212,13.57425 -5.99074,23.58643 1.3338,9.39499 17.04198,9.85191 17.97224,19.79091 1.04403,11.15457 -13.6552,8.30596 -16.06607,19.24868 -3.27577,14.86836 17.1479,9.25694 13.88762,24.12869 -3.01156,13.73711 -19.7315,4.49055 -24.77988,17.62204 -4.65251,12.10165 7.31056,13.16994 0.8169,24.39975 -7.88002,13.62732 -18.98675,-4.26954 -30.22599,6.77772 -10.07739,9.90523 3.79132,17.78381 -8.71381,24.39974 -12.84974,6.79826 -14.269,-10.27344 -28.31988,-6.5066 -10.19117,2.73212 -3.33349,20.2921 -13.88761,20.33313 -10.39204,0.0404 -14.21796,-15.31818 -24.54058,-16.51268 -17.01649,-1.9691 -10.05467,19.56214 -26.28959,14.11825 -16.19481,-5.43045 3.54628,-16.47223 -12.73565,-21.63788 -11.69677,-3.71094 -6.67727,9.76204 -18.8302,8.0336 -11.44673,-1.628 -3.46754,-9.25065 -15.76639,-8.79477 -11.63586,0.43134 -3.95503,14.67621 -15.46908,16.40276 -9.4069,1.41057 -11.58142,-13.97585 -21.04734,-13.03484 -11.48871,1.14213 -9.21239,16.19949 -20.69529,15.00069 -12.52171,-1.30724 -6.16257,-12.02966 -18.29693,-15.37278 -12.71455,-3.503 -14.45811,12.79455 -26.90023,8.42828 -7.69127,-2.69904 -4.1539,-13.81489 -10.93098,-18.33105 -13.94562,-9.29319 -17.50334,12.72299 -29.11645,0.66249 -8.11945,-8.43219 6.00487,-12.23227 -3.57068,-18.98225 -8.45022,-5.95669 -10.2719,8.69062 -18.1283,2.68446 -6.96752,-5.32661 4.03817,-13.69945 -2.20357,-17.56191 -7.87583,-5.19021 -11.98434,6.91963 -20.92185,-3.526 -6.66269,-8.17533 9.28825,-13.86557 2.68435,-22.08806 -7.93689,-9.88218 -18.05148,3.57727 -22.76896,-8.17176 -4.52688,-11.27436 15.16451,-10.16883 12.2538,-21.9598 -4.12123,-16.69469 -26.331935,-3.82027 -25.869105,-18.16425 0.354549,-10.98826 17.702645,-7.99719 17.155285,-18.97759 -0.66084,-13.25725 -17.323592,-12.26811 -16.06606,-26.83975 1.143763,-13.25328 16.3811,-5.34967 20.96758,-16.8087 5.39176,-13.47093 -12.85147,-20.98008 -8.16919,-30.36416 3.72594,-7.4674 16.47474,-1.60086 23.26686,-9.43996 7.95883,-9.18563 -9.21732,-13.5631 -3.11852,-24.0652 z"
         id="path11534-2"
         sodipodi:nodetypes="ssssssszsssaassssssssssssssssssssssssssssssssccsssssssasss" />
    </g>
    <ellipse
       style="display:none;opacity:1;fill:none;fill-opacity:1;stroke:#000000;stroke-width:1.97285;stroke-dasharray:none;stroke-opacity:1;paint-order:stroke fill markers"
       id="path7059"
       cx="153.12628"
       cy="318.12213"
       rx="186.95229"
       ry="166.4091"
       transform="matrix(0.91034113,-0.4138587,0.42668125,0.90440207,0,0)" />
    <ellipse
       style="display:none;opacity:1;fill:none;fill-opacity:1;stroke:#000000;stroke-width:2.06286;stroke-dasharray:none;stroke-opacity:1;paint-order:stroke fill markers"
       id="path7061"
       cx="389.87454"
       cy="284.87335"
       rx="124.20501"
       ry="113.9179" />
    <circle
       style="fill:#ffffff;fill-opacity:1;stroke:#000000;stroke-width:5;stroke-dasharray:none;stroke-opacity:1;paint-order:stroke fill markers"
       id="path7065-8"
       cx="469.00601"
       cy="348.96985"
       r="41.278496" />
    <path
       style="opacity:1;fill:none;fill-opacity:1;stroke:#000000;stroke-width:5;stroke-dasharray:none;stroke-opacity:1;paint-order:stroke fill markers"
       d="m 160.58915,238.92533 70.25431,-82.90171 -89.83835,-45.79343"
       id="path11544"
       sodipodi:nodetypes="ccc" />
    <circle
       style="opacity:1;fill:#ffffff;fill-opacity:1;stroke:#000000;stroke-width:5;stroke-dasharray:none;stroke-opacity:1;paint-order:stroke fill markers"
       id="path11536"
       cx="230.47044"
       cy="153.4695"
       r="16.024126" />
    <circle
       style="opacity:1;fill:#ffffff;fill-opacity:1;stroke:#000000;stroke-width:5;stroke-dasharray:none;stroke-opacity:1;paint-order:stroke fill markers"
       id="path11538"
       cx="150.43517"
       cy="251.513"
       r="29.476479" />
    <circle
       style="opacity:1;fill:#000000;fill-opacity:1;stroke:none;stroke-width:5;stroke-dasharray:none;stroke-opacity:1;paint-order:stroke fill markers"
       id="path11540"
       cx="138.7177"
       cy="109.72222"
       r="21.167671" />
    <circle
       style="fill:#ffffff;fill-opacity:1;stroke:#000000;stroke-width:2.27256;stroke-dasharray:none;stroke-opacity:1;paint-order:stroke fill markers"
       id="path11536-2"
       cx="150.25092"
       cy="251.14355"
       r="24.430349" />
  </g>
  <g
     inkscape:groupmode="layer"
     id="layer3"
     inkscape:label="Image 3">
    <g
       inkscape:groupmode="layer"
       id="layer5"
       inkscape:label="Image 5">
      <path
         style="opacity:1;fill:#000000;fill-opacity:1;stroke:none;stroke-width:3;stroke-dasharray:none;stroke-opacity:1;paint-order:stroke fill markers"
         d="m 325.1934,169.68175 15.1077,45.32307 -15.24758,30.49515 -14.68804,-30.77492 z"
         id="path11380"
         sodipodi:nodetypes="ccccc" />
      <path
         style="opacity:1;fill:#000000;fill-opacity:1;stroke:none;stroke-width:3;stroke-dasharray:none;stroke-opacity:1;paint-order:stroke fill markers"
         d="m 325.13851,306.09895 26.20528,250.9867 -26.11339,61.72255 -26.11339,-62.51387 z"
         id="path11382"
         sodipodi:nodetypes="ccccc" />
      <path
         style="opacity:1;fill:#000000;fill-opacity:1;stroke:#000000;stroke-width:2.88292;stroke-dasharray:none;stroke-opacity:1;paint-order:stroke fill markers"
         d="m 324.8208,179.41337 0.26886,428.68768"
         id="path11384" />
    </g>
    <path
       style="opacity:1;fill:#000000;fill-opacity:1;stroke:#000000;stroke-width:2;stroke-dasharray:none;stroke-opacity:1;paint-order:stroke fill markers"
       d="m 324.98673,360.44391 77.94451,-49.06152 -77.54885,80.31845 z"
       id="path6986"
       sodipodi:nodetypes="cccc" />
    <path
       style="opacity:1;fill:#000000;fill-opacity:1;stroke:#000000;stroke-width:2;stroke-dasharray:none;stroke-opacity:1;paint-order:stroke fill markers"
       d="M 470.193,250.45115 325.77805,381.80941"
       id="path6988" />
    <path
       style="opacity:1;fill:none;fill-opacity:1;stroke:#000000;stroke-width:2;stroke-dasharray:none;stroke-opacity:1;paint-order:stroke fill markers"
       d="m 223.69843,235.81182 101.2883,119.8842"
       id="path6990"
       sodipodi:nodetypes="cc" />
    <path
       style="opacity:1;fill:none;fill-opacity:1;stroke:#000000;stroke-width:2;stroke-dasharray:none;stroke-opacity:1;paint-order:stroke fill markers"
       d="m 222.51146,319.29554 74.77925,3.16526"
       id="path6992" />
    <path
       style="opacity:1;fill:none;fill-opacity:1;stroke:#000000;stroke-width:2;stroke-dasharray:none;stroke-opacity:1;paint-order:stroke fill markers"
       d="m 399.5541,314.49964 52.43866,26.55705"
       id="path6994"
       sodipodi:nodetypes="cc" />
    <path
       style="opacity:1;fill:#000000;fill-opacity:1;stroke:#000000;stroke-width:2;stroke-dasharray:none;stroke-opacity:1;paint-order:stroke fill markers"
       d="m 324.98673,369.14837 -63.70084,-88.2316 64.88781,67.65742 z"
       id="path6996" />
    <path
       style="opacity:1;fill:#000000;fill-opacity:1;stroke:#000000;stroke-width:2;stroke-dasharray:none;stroke-opacity:1;paint-order:stroke fill markers"
       d="m 220.92883,319.69119 21.3655,-9.89143 17.40893,10.68275 -17.40893,8.70446 z"
       id="path6998"
       sodipodi:nodetypes="ccccc" />
    <path
       style="opacity:1;fill:#000000;fill-opacity:1;stroke:#000000;stroke-width:2;stroke-dasharray:none;stroke-opacity:1;paint-order:stroke fill markers"
       d="m 424.6924,291.20386 11.47407,-29.67431 36.00482,-12.66103 -16.61761,36.00482 z"
       id="path7000"
       sodipodi:nodetypes="ccccc" />
    <path
       style="opacity:1;fill:#000000;fill-opacity:1;stroke:#000000;stroke-width:2;stroke-dasharray:none;stroke-opacity:1;paint-order:stroke fill markers"
       d="m 431.81423,331.16526 15.03499,-1.58263 5.93486,13.45235 -14.24367,0.79132 z"
       id="path7002"
       sodipodi:nodetypes="ccccc" />
    <path
       style="opacity:1;fill:#000000;fill-opacity:1;stroke:#000000;stroke-width:2;stroke-dasharray:none;stroke-opacity:1;paint-order:stroke fill markers"
       d="m 223.69843,235.81182 38.37877,23.73944 2.37395,24.13511 -29.27866,-9.10012 z"
       id="path7004"
       sodipodi:nodetypes="ccccc" />
  </g>
</svg>
